#!OML:ASF E:\emotionWalksFemale\Project 1\Capture day 1\Session 1\Female1.ASF
:FULLY-SPECIFIED
:DEGREES
833
root 8.4169 15.237 9.60719 178.131 0.264396 -181.287
lowerback 5.47675 1.06542 1.39995
upperback 0.236527 1.69514 2.72369
thorax -2.87101 0.888431 1.88516
lowerneck -1.69341 -3.07864 -9.57558
upperneck 26.1077 -15.2501 22.2539
head 11.1459 -8.01173 8.0062
rclavicle 6.31141e-015 -1.27222e-014
rhumerus -36.404 2.69745 -82.062
rradius 28.7532
rwrist 20.8322
rhand -6.34799 -50.8828
rfingers 7.12502
rthumb 19.4978 -79.9252
lclavicle 6.31141e-015 -1.27222e-014
lhumerus -37.4207 3.14863 86.5795
lradius 36.26
lwrist -9.67592
lhand 0.0729221 -30.38
lfingers 7.12502
lthumb 25.6602 -2.08929
rfemur 4.37944 2.87573 23.2848
rtibia 49.8259
rfoot 2.97765 -1.97506
rtoes -3.38261
lfemur -21.7212 -16.949 -26.6036
ltibia 30.9539
lfoot -10.7185 4.73773
ltoes 4.4964
834
root 8.40789 15.2407 9.52949 178.057 0.127853 -181.398
lowerback 5.5541 1.02893 1.28823
upperback 0.260507 1.64148 2.72924
thorax -2.89158 0.86323 1.95664
lowerneck -1.43262 -2.99097 -9.57917
upperneck 26.0958 -15.2079 22.3445
head 11.086 -8.01973 8.05955
rclavicle 7.66563e-015 -4.6118e-014
rhumerus -36.1793 2.12082 -81.6831
rradius 28.1978
rwrist 21.9425
rhand -7.58488 -50.0656
rfingers 7.12502
rthumb 18.3082 -79.224
lclavicle 7.66563e-015 -4.6118e-014
lhumerus -37.1201 2.961 86.6288
lradius 36.6208
lwrist -9.25617
lhand 0.713452 -28.7343
lfingers 7.12502
lthumb 26.2736 -0.533553
rfemur 3.6107 2.87963 22.9911
rtibia 51.5144
rfoot 3.98711 -1.50536
rtoes -2.94188
lfemur -21.2819 -16.8907 -26.9179
ltibia 30.9064
lfoot -10.9259 4.77156
ltoes 3.66652
835
root 8.40366 15.2409 9.45444 177.945 -0.0609615 -181.501
lowerback 5.49475 1.14476 1.15862
upperback 0.354328 1.57157 2.74277
thorax -2.76157 0.739073 2.05538
lowerneck -1.11068 -2.92218 -9.61352
upperneck 26.0145 -15.1752 22.4691
head 10.9942 -8.03515 8.13094
rclavicle -2.67117e-015 1.11319e-014
rhumerus -35.7866 1.56047 -81.4485
rradius 28.1388
rwrist 21.5935
rhand -7.36438 -51.2765
rfingers 7.12502
rthumb 18.5203 -80.4148
lclavicle -2.67117e-015 1.11319e-014
lhumerus -36.6712 3.11189 86.4493
lradius 36.1242
lwrist -10.1932
lhand -0.790654 -29.7891
lfingers 7.12502
lthumb 24.8329 -1.38169
rfemur 2.79385 2.73625 22.707
rtibia 53.2148
rfoot 5.2426 -1.10056
rtoes -3.90677
lfemur -20.7992 -16.7815 -27.2187
ltibia 30.8372
lfoot -11.09 4.57504
ltoes 2.49637
836
root 8.39362 15.244 9.38543 177.943 -0.130065 -181.656
lowerback 6.04507 1.06373 0.965348
upperback 0.00565008 1.48389 2.7963
thorax -3.43482 0.701586 2.21614
lowerneck -0.629559 -2.75084 -9.74731
upperneck 26.3321 -15.1389 22.3682
head 11.0056 -8.10969 8.15297
rclavicle -2.60284e-015 2.22639e-014
rhumerus -36.1385 1.35768 -81.2184
rradius 28.0223
rwrist 22.0415
rhand -8.00115 -51.6684
rfingers 7.12502
rthumb 17.9077 -80.864
lclavicle -2.60284e-015 2.22639e-014
lhumerus -37.0197 3.46903 86.2756
lradius 36.2451
lwrist -10.8522
lhand -1.39749 -29.6264
lfingers 7.12502
lthumb 24.2512 -1.14005
rfemur 1.73915 2.48852 22.2025
rtibia 54.926
rfoot 6.65975 -0.501259
rtoes -3.9528
lfemur -20.4463 -16.4833 -27.5624
ltibia 30.7624
lfoot -11.3286 4.27958
ltoes 1.49085
837
root 8.37735 15.2499 9.31789 178.004 0.00137728 -181.792
lowerback 6.45118 1.2799 1.30403
upperback 0.749898 1.98167 2.39081
thorax -2.88465 1.03099 1.55545
lowerneck -3.31679 -3.63721 -8.52986
upperneck 26.6125 -16.2857 21.999
head 11.8234 -8.24862 7.50931
rclavicle 7.95139e-015 3.10104e-014
rhumerus -34.3015 -0.759779 -80.9418
rradius 27.4089
rwrist 23.6422
rhand -9.80033 -50.9848
rfingers 7.12502
rthumb 16.1759 -80.3299
lclavicle 7.95139e-015 3.10104e-014
lhumerus -34.6984 2.1232 86.2997
lradius 36.2926
lwrist -10.3526
lhand -1.05768 -29.0969
lfingers 7.12502
lthumb 24.5769 -0.654433
rfemur 0.553238 2.38879 21.668
rtibia 56.6387
rfoot 8.20257 0.227735
rtoes -2.70221
lfemur -20.172 -16.1166 -27.8642
ltibia 30.6747
lfoot -11.5023 4.12548
ltoes 0.30682
838
root 8.36245 15.2531 9.24727 178.031 -0.0152481 -181.97
lowerback 6.2697 1.15895 1.03112
upperback 0.393212 1.80451 2.56469
thorax -3.16212 0.944269 1.90426
lowerneck -1.5352 -3.15334 -9.08268
upperneck 26.4677 -15.7758 22.2215
head 11.334 -8.25388 7.84662
rclavicle 1.30452e-014 3.65764e-014
rhumerus -34.9878 -0.32641 -80.71
rradius 27.7994
rwrist 23.0848
rhand -9.62119 -51.8324
rfingers 7.12502
rthumb 16.3484 -81.1634
lclavicle 1.30452e-014 3.65764e-014
lhumerus -35.5869 2.37157 86.3929
lradius 36.7133
lwrist -9.92368
lhand -1.15011 -28.796
lfingers 7.12502
lthumb 24.4883 -0.341549
rfemur -0.553669 2.18603 21.1402
rtibia 58.3136
rfoot 9.62435 0.913284
rtoes -3.00965
lfemur -19.8386 -15.9695 -28.2216
ltibia 30.564
lfoot -11.5959 4.26635
ltoes -2.20529
839
root 8.35183 15.2585 9.17467 178.041 -0.111474 -182.13
lowerback 6.1423 1.2406 0.93605
upperback 0.599973 1.68978 2.58942
thorax -2.87598 0.798556 2.00256
lowerneck -1.75628 -3.14804 -9.10465
upperneck 26.5155 -15.7159 22.1881
head 11.3843 -8.19906 7.84063
rclavicle -1.28465e-014 1.27222e-014
rhumerus -34.3127 -0.755242 -80.4365
rradius 27.6406
rwrist 23.4674
rhand -9.43952 -52.3742
rfingers 7.12502
rthumb 16.5233 -81.6907
lclavicle -1.28465e-014 1.27222e-014
lhumerus -35.0421 2.38542 86.4775
lradius 36.8589
lwrist -9.88349
lhand -1.17645 -28.3801
lfingers 7.12502
lthumb 24.4631 0.077737
rfemur -1.6 1.92334 20.6932
rtibia 59.9208
rfoot 10.8527 1.29031
rtoes -4.38695
lfemur -19.4364 -15.8311 -28.551
ltibia 30.4115
lfoot -11.8515 4.13284
ltoes -2.73182
840
root 8.33988 15.2663 9.10067 178.049 0.0308545 -182.332
lowerback 6.21786 1.28619 0.954785
upperback 0.767774 1.9535 2.38484
thorax -2.74627 1.01885 1.75359
lowerneck -2.17053 -3.34476 -8.63618
upperneck 26.5153 -16.0694 22.1843
head 11.5186 -8.27764 7.68053
rclavicle 1.49089e-016 -4.77083e-015
rhumerus -33.8887 -1.67149 -80.3106
rradius 27.4956
rwrist 24.0225
rhand -9.97507 -52.4399
rfingers 7.12502
rthumb 16.0077 -81.7985
lclavicle 1.49089e-016 -4.77083e-015
lhumerus -34.3367 1.83251 86.4336
lradius 36.7396
lwrist -10.0373
lhand -1.69631 -28.6685
lfingers 7.12502
lthumb 23.9646 -0.14422
rfemur -2.69448 1.82863 20.1829
rtibia 61.5003
rfoot 11.9338 1.21608
rtoes -3.28505
lfemur -19.0133 -15.4583 -28.9135
ltibia 30.2203
lfoot -12.1511 3.62591
ltoes 0.506964
841
root 8.32589 15.2722 9.02697 177.98 0.157747 -182.567
lowerback 6.30134 1.02323 0.522405
upperback 0.212951 1.59418 2.70086
thorax -3.37816 0.847594 2.34845
lowerneck -0.184018 -2.61163 -9.68281
upperneck 26.6034 -15.2757 22.4172
head 11.0485 -8.2338 8.17359
rclavicle -9.14409e-015 6.04305e-014
rhumerus -35.061 -0.151018 -80.1628
rradius 27.5027
rwrist 24.2174
rhand -11.2256 -51.603
rfingers 7.12502
rthumb 14.8032 -81.0543
lclavicle -9.14409e-015 6.04305e-014
lhumerus -35.6089 3.06018 86.3961
lradius 36.7858
lwrist -10.3125
lhand -2.57293 -29.1912
lfingers 7.12502
lthumb 23.1238 -0.558876
rfemur -3.72465 1.60315 19.5906
rtibia 63.0686
rfoot 12.7152 0.892687
rtoes -2.0255
lfemur -18.5073 -15.1668 -29.3424
ltibia 30.0152
lfoot -12.3701 3.55383
ltoes 2.28274
842
root 8.31327 15.2768 8.96024 177.959 0.240234 -182.713
lowerback 6.39395 1.0077 0.478366
upperback 0.377911 1.57537 2.72989
thorax -3.26077 0.840888 2.40462
lowerneck -0.594941 -2.64442 -9.76921
upperneck 26.8548 -15.3119 22.2956
head 11.2352 -8.22224 8.13291
rclavicle -2.31087e-015 -1.90833e-014
rhumerus -34.5967 -0.065836 -80.1009
rradius 27.768
rwrist 23.5232
rhand -10.8292 -52.016
rfingers 7.12502
rthumb 15.185 -81.4388
lclavicle -2.31087e-015 -1.90833e-014
lhumerus -35.1025 3.13026 86.438
lradius 36.8398
lwrist -10.1243
lhand -2.79519 -29.0627
lfingers 7.12502
lthumb 22.9105 -0.403775
rfemur -4.86169 1.36743 19.1664
rtibia 64.6196
rfoot 13.3172 0.463246
rtoes -2.85787
lfemur -18.07 -15.0262 -29.647
ltibia 29.7977
lfoot -12.5852 3.73588
ltoes 1.89542
